<svg  xmlns="http://www.w3.org/2000/svg">
  <defs>

<symbol id="shade" viewBox="0 0 1440 619"> 
    <g id="Page-1" stroke="none" stroke-width="1" fill="none" fill-rule="evenodd">
        <g id="shade" fill="url(#linearGradient-1)">
            <rect id="Rectangle" x="0" y="0" width="1440" height="619"></rect>
        </g>
    </g>
</symbol>


<symbol id="dd"  viewBox="0 0 1138 226" version="1.1">
         <g id="design">
            <path d="M588.4,119.2 C588.4,124.400026 589.233325,129.266644 590.9,133.8 C592.566675,138.333356 594.933318,142.26665 598,145.6 C601.066682,148.93335 604.766645,151.566657 609.1,153.5 C613.433355,155.433343 618.333306,156.4 623.8,156.4 C629.13336,156.4 634.099977,155.433343 638.7,153.5 C643.300023,151.566657 647.26665,148.93335 650.6,145.6 C653.93335,142.26665 656.533324,138.333356 658.4,133.8 C660.266676,129.266644 661.2,124.400026 661.2,119.2 C661.2,113.999974 660.266676,109.133356 658.4,104.6 C656.533324,100.066644 653.93335,96.13335 650.6,92.8 C647.26665,89.46665 643.300023,86.833343 638.7,84.9 C634.099977,82.966657 629.13336,82 623.8,82 C618.333306,82 613.433355,82.966657 609.1,84.9 C604.766645,86.833343 601.066682,89.46665 598,92.8 C594.933318,96.13335 592.566675,100.066644 590.9,104.6 C589.233325,109.133356 588.4,113.999974 588.4,119.2 Z M673.8,166 L660.6,166 L660.6,150.4 L660.2,150.4 C658.066656,153.600016 655.533348,156.333322 652.6,158.6 C649.666652,160.866678 646.600016,162.733326 643.4,164.2 C640.199984,165.666674 636.900017,166.73333 633.5,167.4 C630.099983,168.06667 626.866682,168.4 623.8,168.4 C616.46663,168.4 609.766697,167.166679 603.7,164.7 C597.633303,162.233321 592.400022,158.800022 588,154.4 C583.599978,149.999978 580.166679,144.80003 577.7,138.8 C575.233321,132.79997 574,126.266702 574,119.2 C574,112.133298 575.233321,105.60003 577.7,99.6 C580.166679,93.59997 583.599978,88.400022 588,84 C592.400022,79.599978 597.633303,76.166679 603.7,73.7 C609.766697,71.233321 616.46663,70 623.8,70 C626.866682,70 630.099983,70.33333 633.5,71 C636.900017,71.66667 640.199984,72.733326 643.4,74.2 C646.600016,75.666674 649.666652,77.533322 652.6,79.8 C655.533348,82.066678 658.066656,84.799984 660.2,88 L660.6,88 L660.6,14.8 L673.8,14.8 L673.8,166 Z" id="d" fill="#14D3B7"></path>
            <path d="M766.2,112 C766.2,103.066622 763.53336,95.833361 758.2,90.3 C752.86664,84.766639 745.400048,82 735.8,82 C731.533312,82 727.40002,82.833325 723.4,84.5 C719.39998,86.166675 715.900015,88.399986 712.9,91.2 C709.899985,94.000014 707.5,97.199982 705.7,100.8 C703.899991,104.400018 703,108.133314 703,112 L766.2,112 Z M702.6,122.8 C703.000002,127.46669 704.133324,131.866646 706,136 C707.866676,140.133354 710.333318,143.699985 713.4,146.7 C716.466682,149.700015 719.99998,152.066658 724,153.8 C728.00002,155.533342 732.33331,156.4 737,156.4 C744.066702,156.4 750.166641,154.766683 755.3,151.5 C760.433359,148.233317 764.33332,144.466688 767,140.2 L777.2,148.6 C771.599972,155.666702 765.433367,160.733318 758.7,163.8 C751.966633,166.866682 744.733372,168.4 737,168.4 C730.066632,168.4 723.633363,167.166679 717.7,164.7 C711.766637,162.233321 706.666688,158.800022 702.4,154.4 C698.133312,149.999978 694.766679,144.80003 692.3,138.8 C689.833321,132.79997 688.6,126.266702 688.6,119.2 C688.6,112.133298 689.799988,105.60003 692.2,99.6 C694.600012,93.59997 697.933312,88.400022 702.2,84 C706.466688,79.599978 711.466638,76.166679 717.2,73.7 C722.933362,71.233321 729.1333,70 735.8,70 C742.866702,70 749.199972,71.266654 754.8,73.8 C760.400028,76.333346 765.099981,79.699979 768.9,83.9 C772.700019,88.100021 775.6,93.033305 777.6,98.7 C779.6,104.366695 780.6,110.399968 780.6,116.8 L780.6,122.8 L702.6,122.8 Z" id="e" fill="#14D3B7"></path>
            <path d="M845,94.6 C842.99999,90.733314 840.33335,87.666678 837,85.4 C833.66665,83.133322 829.600024,82 824.8,82 C822.533322,82 820.233345,82.266664 817.9,82.8 C815.566655,83.333336 813.466676,84.166661 811.6,85.3 C809.733324,86.433339 808.233339,87.866658 807.1,89.6 C805.966661,91.333342 805.4,93.466654 805.4,96 C805.4,100.400022 806.933318,103.59999 810,105.6 C813.066682,107.60001 817.666636,109.333326 823.8,110.8 L837.2,114 C843.733366,115.466674 849.166645,118.433311 853.5,122.9 C857.833355,127.366689 860,132.9333 860,139.6 C860,144.666692 858.966677,149.033315 856.9,152.7 C854.833323,156.366685 852.100017,159.366655 848.7,161.7 C845.299983,164.033345 841.400022,165.733328 837,166.8 C832.599978,167.866672 828.133356,168.4 823.6,168.4 C816.399964,168.4 809.700031,167.033347 803.5,164.3 C797.299969,161.566653 792.000022,156.8667 787.6,150.2 L799,142.4 C801.66668,146.666688 805.033313,150.066654 809.1,152.6 C813.166687,155.133346 817.999972,156.4 823.6,156.4 C826.26668,156.4 828.93332,156.100003 831.6,155.5 C834.26668,154.899997 836.633323,153.966673 838.7,152.7 C840.766677,151.433327 842.433327,149.80001 843.7,147.8 C844.966673,145.79999 845.6,143.46668 845.6,140.8 C845.6,136.13331 843.866684,132.766677 840.4,130.7 C836.933316,128.633323 832.733358,127 827.8,125.8 L815,122.8 L814.373436,122.6375 C812.849476,122.229166 810.891679,121.616671 808.5,120.8 C805.766653,119.866662 803.100013,118.466676 800.5,116.6 C797.899987,114.733324 795.666676,112.300015 793.8,109.3 C791.933324,106.299985 791,102.600022 791,98.2 C791,93.399976 791.966657,89.200018 793.9,85.6 C795.833343,81.999982 798.433317,79.066678 801.7,76.8 C804.966683,74.533322 808.666646,72.833339 812.8,71.7 C816.933354,70.566661 821.199978,70 825.6,70 C832.133366,70 838.199972,71.266654 843.8,73.8 C849.400028,76.333346 853.733318,80.666636 856.8,86.8 L845,94.6 Z" id="s" fill="#14D3B7"></path>
            <path d="M891.6,36.4 C891.6,39.200014 890.60001,41.499991 888.6,43.3 C886.59999,45.100009 884.400012,46 882,46 C879.599988,46 877.4,45.100009 875.4,43.3 C873.4,41.499991 872.4,39.200014 872.4,36.4 C872.4,33.599986 873.4,31.3 875.4,29.5 C877.4,27.699991 879.599988,26.8 882,26.8 C884.400012,26.8 886.59999,27.699991 888.6,29.5 C890.60001,31.3 891.6,33.599986 891.6,36.4 Z M888.6,166 L875.4,166 L875.4,72.4 L888.6,72.4 L888.6,166 Z" id="i" fill="#14D3B7"></path>
            <path d="M921,118 C921,122.933358 921.899991,127.566645 923.7,131.9 C925.5,136.233355 927.966651,140.033317 931.1,143.3 C934.233349,146.566683 937.899979,149.166657 942.1,151.1 C946.300021,153.033343 950.866642,154 955.8,154 C960.600024,154 965.166645,153.133342 969.5,151.4 C973.833355,149.666658 977.66665,147.233349 981,144.1 C984.33335,140.966651 986.899991,137.200022 988.7,132.8 C990.5,128.399978 991.333334,123.466694 991.2,118 C991.2,113.066642 990.400008,108.433355 988.8,104.1 C987.199992,99.766645 984.866682,95.966683 981.8,92.7 C978.733318,89.433317 975.000022,86.833343 970.6,84.9 C966.199978,82.966657 961.266694,82 955.8,82 C950.866642,82 946.300021,82.966657 942.1,84.9 C937.899979,86.833343 934.233349,89.433317 931.1,92.7 C927.966651,95.966683 925.5,99.766645 923.7,104.1 C921.899991,108.433355 921,113.066642 921,118 Z M918.6,184.8 C922.466686,190.000026 927.499969,194.166651 933.7,197.3 C939.900031,200.433349 946.799962,202 954.4,202 C961.0667,202 966.73331,201.033343 971.4,199.1 C976.06669,197.166657 979.833319,194.53335 982.7,191.2 C985.566681,187.86665 987.633327,183.966689 988.9,179.5 C990.166673,175.033311 990.8,170.266692 990.8,165.2 L990.8,148.4 L990.4,148.4 C986.133312,154.800032 980.933364,159.33332 974.8,162 C968.666636,164.66668 962.200034,166 955.4,166 C948.599966,166 942.233363,164.800012 936.3,162.4 C930.366637,159.999988 925.200022,156.700021 920.8,152.5 C916.399978,148.299979 912.933346,143.266696 910.4,137.4 C907.866654,131.533304 906.6,125.200034 906.6,118.4 C906.6,111.599966 907.799988,105.266696 910.2,99.4 C912.600012,93.533304 915.899979,88.400022 920.1,84 C924.300021,79.599978 929.299971,76.166679 935.1,73.7 C940.900029,71.233321 947.266632,70 954.2,70 C957.000014,70 959.966651,70.266664 963.1,70.8 C966.233349,71.333336 969.366651,72.26666 972.5,73.6 C975.633349,74.93334 978.733318,76.766655 981.8,79.1 C984.866682,81.433345 987.73332,84.399982 990.4,88 L990.8,88 L990.8,72.4 L1004,72.4 L1004,165.2 C1004,170.266692 1003.36667,175.666638 1002.1,181.4 C1000.83333,187.133362 998.366685,192.399976 994.7,197.2 C991.033315,202.000024 985.933366,205.999984 979.4,209.2 C972.866634,212.400016 964.333386,214 953.8,214 C944.46662,214 936.13337,212.466682 928.8,209.4 C921.46663,206.333318 914.80003,201.600032 908.8,195.2 L918.6,184.8 Z" id="g" fill="#14D3B7"></path>
            <path d="M1037,72.4 C1037.26667,74.933346 1037.43333,77.433321 1037.5,79.9 C1037.56667,82.366679 1037.6,84.866654 1037.6,87.4 L1038,87.4 C1039.46667,84.866654 1041.33332,82.533344 1043.6,80.4 C1045.86668,78.266656 1048.39999,76.433341 1051.2,74.9 C1054.00001,73.366659 1056.96665,72.166671 1060.1,71.3 C1063.23335,70.433329 1066.33332,70 1069.4,70 C1081.40006,70 1090.26664,73.166635 1096,79.5 C1101.73336,85.833365 1104.6,94.866608 1104.6,106.6 L1104.6,166 L1091.4,166 L1091.4,114.2 C1091.4,103.799948 1089.60002,95.833361 1086,90.3 C1082.46427,84.865449 1075.9705,82.0996908 1066.5185,82.0026467 L1066,82 C1065.33333,82 1063.46668,82.266664 1060.4,82.8 C1057.33332,83.333336 1054.10002,84.799988 1050.7,87.2 C1047.29998,89.600012 1044.26668,93.199976 1041.6,98 C1038.93332,102.800024 1037.6,109.466624 1037.6,118 L1037.6,166 L1024.4,166 L1024.4,93 L1024.39585,92.0781979 C1024.37509,89.7044924 1024.27647,86.8117818 1024.1,83.4 C1023.9,79.533314 1023.66667,75.866684 1023.4,72.4 L1037,72.4 Z" id="n" fill="#14D3B7"></path>
        </g>
        <path d="M46.4,119.2 C46.4,124.400026 47.233325,129.266644 48.9,133.8 C50.566675,138.333356 52.933318,142.26665 56,145.6 C59.066682,148.93335 62.766645,151.566657 67.1,153.5 C71.433355,155.433343 76.333306,156.4 81.8,156.4 C87.13336,156.4 92.099977,155.433343 96.7,153.5 C101.300023,151.566657 105.26665,148.93335 108.6,145.6 C111.93335,142.26665 114.533324,138.333356 116.4,133.8 C118.266676,129.266644 119.2,124.400026 119.2,119.2 C119.2,113.999974 118.266676,109.133356 116.4,104.6 C114.533324,100.066644 111.93335,96.13335 108.6,92.8 C105.26665,89.46665 101.300023,86.833343 96.7,84.9 C92.099977,82.966657 87.13336,82 81.8,82 C76.333306,82 71.433355,82.966657 67.1,84.9 C62.766645,86.833343 59.066682,89.46665 56,92.8 C52.933318,96.13335 50.566675,100.066644 48.9,104.6 C47.233325,109.133356 46.4,113.999974 46.4,119.2 Z M131.8,166 L118.6,166 L118.6,150.4 L118.2,150.4 C116.066656,153.600016 113.533348,156.333322 110.6,158.6 C107.666652,160.866678 104.600016,162.733326 101.4,164.2 C98.199984,165.666674 94.900017,166.73333 91.5,167.4 C88.099983,168.06667 84.866682,168.4 81.8,168.4 C74.46663,168.4 67.766697,167.166679 61.7,164.7 C55.633303,162.233321 50.400022,158.800022 46,154.4 C41.599978,149.999978 38.166679,144.80003 35.7,138.8 C33.233321,132.79997 32,126.266702 32,119.2 C32,112.133298 33.233321,105.60003 35.7,99.6 C38.166679,93.59997 41.599978,88.400022 46,84 C50.400022,79.599978 55.633303,76.166679 61.7,73.7 C67.766697,71.233321 74.46663,70 81.8,70 C84.866682,70 88.099983,70.33333 91.5,71 C94.900017,71.66667 98.199984,72.733326 101.4,74.2 C104.600016,75.666674 107.666652,77.533322 110.6,79.8 C113.533348,82.066678 116.066656,84.799984 118.2,88 L118.6,88 L118.6,14.8 L131.8,14.8 L131.8,166 Z M170.834483,36.4 C170.834483,39.200014 169.834493,41.499991 167.834483,43.3 C165.834473,45.100009 163.634495,46 161.234483,46 C158.834471,46 156.634483,45.100009 154.634483,43.3 C152.634473,41.499991 151.634483,39.200014 151.634483,36.4 C151.634483,33.599986 152.634473,31.3 154.634483,29.5 C156.634483,27.699991 158.834471,26.8 161.234483,26.8 C163.634495,26.8 165.834473,27.699991 167.834483,29.5 C169.834493,31.3 170.834483,33.599986 170.834483,36.4 Z M167.834483,166 L154.634483,166 L154.634483,72.4 L167.834483,72.4 L167.834483,166 Z M200.268966,118 C200.268966,122.933358 201.168957,127.566645 202.968966,131.9 C204.768966,136.233355 207.235617,140.033317 210.368966,143.3 C213.502315,146.566683 217.168945,149.166657 221.368966,151.1 C225.568987,153.033343 230.135608,154 235.068966,154 C239.86899,154 244.435611,153.133342 248.768966,151.4 C253.102321,149.666658 256.935616,147.233349 260.268966,144.1 C263.602316,140.966651 266.168957,137.200022 267.968966,132.8 C269.768966,128.399978 270.6023,123.466694 270.468966,118 C270.468966,113.066642 269.668974,108.433355 268.068966,104.1 C266.468958,99.766645 264.135648,95.966683 261.068966,92.7 C258.002284,89.433317 254.268988,86.833343 249.868966,84.9 C245.468944,82.966657 240.53566,82 235.068966,82 C230.135608,82 225.568987,82.966657 221.368966,84.9 C217.168945,86.833343 213.502315,89.433317 210.368966,92.7 C207.235617,95.966683 204.768966,99.766645 202.968966,104.1 C201.168957,108.433355 200.268966,113.066642 200.268966,118 Z M197.868966,184.8 C201.735652,190.000026 206.768935,194.166651 212.968966,197.3 C219.168997,200.433349 226.068928,202 233.668966,202 C240.335666,202 246.002276,201.033343 250.668966,199.1 C255.335656,197.166657 259.102285,194.53335 261.968966,191.2 C264.835647,187.86665 266.902293,183.966689 268.168966,179.5 C269.435639,175.033311 270.068966,170.266692 270.068966,165.2 L270.068966,148.4 L269.668966,148.4 C265.402278,154.800032 260.20233,159.33332 254.068966,162 C247.935602,164.66668 241.469,166 234.668966,166 C227.868932,166 221.502329,164.800012 215.568966,162.4 C209.635603,159.999988 204.468988,156.700021 200.068966,152.5 C195.668944,148.299979 192.202312,143.266696 189.668966,137.4 C187.13562,131.533304 185.868966,125.200034 185.868966,118.4 C185.868966,111.599966 187.068954,105.266696 189.468966,99.4 C191.868978,93.533304 195.168945,88.400022 199.368966,84 C203.568987,79.599978 208.568937,76.166679 214.368966,73.7 C220.168995,71.233321 226.535598,70 233.468966,70 C236.26898,70 239.235617,70.266664 242.368966,70.8 C245.502315,71.333336 248.635617,72.26666 251.768966,73.6 C254.902315,74.93334 258.002284,76.766655 261.068966,79.1 C264.135648,81.433345 267.002286,84.399982 269.668966,88 L270.068966,88 L270.068966,72.4 L283.268966,72.4 L283.268966,165.2 C283.268966,170.266692 282.635639,175.666638 281.368966,181.4 C280.102293,187.133362 277.635651,192.399976 273.968966,197.2 C270.302281,202.000024 265.202332,205.999984 258.668966,209.2 C252.1356,212.400016 243.602352,214 233.068966,214 C223.735586,214 215.402336,212.466682 208.068966,209.4 C200.735596,206.333318 194.068996,201.600032 188.068966,195.2 L197.868966,184.8 Z M323.103448,36.4 C323.103448,39.200014 322.103458,41.499991 320.103448,43.3 C318.103438,45.100009 315.90346,46 313.503448,46 C311.103436,46 308.903458,45.100009 306.903448,43.3 C304.903448,41.499991 303.903448,39.200014 303.903448,36.4 C303.903448,33.599986 304.903448,31.3 306.903448,29.5 C308.903458,27.699991 311.103436,26.8 313.503448,26.8 C315.90346,26.8 318.103438,27.699991 320.103448,29.5 C322.103458,31.3 323.103448,33.599986 323.103448,36.4 Z M320.103448,166 L306.903448,166 L306.903448,72.4 L320.103448,72.4 L320.103448,166 Z M391.337931,84.4 L364.337931,84.4 L364.337931,139.6 C364.337931,143.066684 364.671261,145.899989 365.337931,148.1 C366.004601,150.300011 366.937925,152 368.137931,153.2 C369.337931,154.400006 370.771256,155.233331 372.437931,155.7 C374.104606,156.166669 375.937921,156.4 377.937931,156.4 C380.204609,156.4 382.537919,156.06667 384.937931,155.4 C387.337943,154.73333 389.537921,153.866672 391.537931,152.8 L392.137931,165 C387.204573,167.266678 381.271299,168.4 374.337931,168.4 C371.804585,168.4 369.171278,168.06667 366.437931,167.4 C363.704584,166.73333 361.204609,165.466676 358.937931,163.6 C356.671253,161.733324 354.804605,159.200016 353.337931,156 C351.871257,152.799984 351.137931,148.600026 351.137931,143.4 L351.137931,84.4 L331.337931,84.4 L331.337931,72.4 L351.137931,72.4 L351.137931,46 L364.337931,46 L364.337931,72.4 L391.337931,72.4 L391.337931,84.4 Z M460.372414,119.4 L453.572414,119.4 L452.54741,119.405 C449.397405,119.435 445.572436,119.599998 441.072414,119.9 C436.072389,120.233335 431.272437,121.033327 426.672414,122.3 C422.072391,123.566673 418.139097,125.53332 414.872414,128.2 C411.605731,130.86668 409.972414,134.53331 409.972414,139.2 C409.972414,142.266682 410.605741,144.899989 411.872414,147.1 C413.139087,149.300011 414.83907,151.099993 416.972414,152.5 C419.105758,153.9 421.472401,154.9 424.072414,155.5 C426.672427,156.100003 429.305734,156.4 431.972414,156.4 C436.772438,156.4 440.939063,155.600008 444.472414,154 C448.005765,152.4 450.972402,150.233347 453.372414,147.5 C455.772426,144.766653 457.539075,141.566685 458.672414,137.9 C459.805753,134.233315 460.372414,130.333354 460.372414,126.2 L460.372414,119.4 Z M460.372414,108.6 L460.372414,106.2 C460.372414,90.066586 452.372494,82 436.372414,82 C425.439026,82 415.905788,85.66663 407.772414,93 L399.772414,83.6 C408.572458,74.533288 421.772326,70 439.372414,70 C443.90577,70 448.272393,70.66666 452.472414,72 C456.672435,73.33334 460.305732,75.366653 463.372414,78.1 C466.439096,80.833347 468.905738,84.266646 470.772414,88.4 C472.63909,92.533354 473.572414,97.466638 473.572414,103.2 L473.572414,145 C473.572414,148.600018 473.739079,152.366647 474.072414,156.3 L474.191445,157.659174 C474.492484,160.984442 474.819471,163.764695 475.172414,166 L462.372414,166 C461.972412,163.733322 461.672415,161.26668 461.472414,158.6 C461.272413,155.93332 461.172414,153.333346 461.172414,150.8 L460.772414,150.8 C456.905728,157.066698 452.339107,161.566653 447.072414,164.3 C441.805721,167.033347 435.372452,168.4 427.772414,168.4 C423.63906,168.4 419.6391,167.833339 415.772414,166.7 C411.905728,165.566661 408.472429,163.833345 405.472414,161.5 C402.472399,159.166655 400.072414,156.300017 398.272414,152.9 C396.472405,149.499983 395.572414,145.533356 395.572414,141 C395.572414,133.399962 397.539061,127.433355 401.472414,123.1 C405.405767,118.766645 410.339051,115.533344 416.272414,113.4 C422.205777,111.266656 428.539047,109.933336 435.272414,109.4 C442.005781,108.866664 448.172386,108.6 453.772414,108.6 L460.372414,108.6 Z M511.406897,166 L498.206897,166 L498.206897,14.8 L511.406897,14.8 L511.406897,166 Z" id="digital" fill="#000000"></path>
        

</symbol>



    <symbol id="github" viewBox="0 0 24 24" version="1.1">
        <g id="Page-1" stroke="none" stroke-width="1" fill="none" fill-rule="evenodd">
            <g id="Desktop" transform="translate(-393.000000, -373.000000)" fill="#000000" fill-rule="nonzero">
                <g id="github" transform="translate(393.000000, 373.000000)">
                    <path d="M12,0.297 C5.37,0.297 0,5.67 0,12.297 C0,17.6 3.438,22.097 8.205,23.682 C8.805,23.795 9.025,23.424 9.025,23.105 C9.025,22.82 9.015,22.065 9.01,21.065 C5.672,21.789 4.968,19.455 4.968,19.455 C4.422,18.07 3.633,17.7 3.633,17.7 C2.546,16.956 3.717,16.971 3.717,16.971 C4.922,17.055 5.555,18.207 5.555,18.207 C6.625,20.042 8.364,19.512 9.05,19.205 C9.158,18.429 9.467,17.9 9.81,17.6 C7.145,17.3 4.344,16.268 4.344,11.67 C4.344,10.36 4.809,9.29 5.579,8.45 C5.444,8.147 5.039,6.927 5.684,5.274 C5.684,5.274 6.689,4.952 8.984,6.504 C9.944,6.237 10.964,6.105 11.984,6.099 C13.004,6.105 14.024,6.237 14.984,6.504 C17.264,4.952 18.269,5.274 18.269,5.274 C18.914,6.927 18.509,8.147 18.389,8.45 C19.154,9.29 19.619,10.36 19.619,11.67 C19.619,16.28 16.814,17.295 14.144,17.59 C14.564,17.95 14.954,18.686 14.954,19.81 C14.954,21.416 14.939,22.706 14.939,23.096 C14.939,23.411 15.149,23.786 15.764,23.666 C20.565,22.092 24,17.592 24,12.297 C24,5.67 18.627,0.297 12,0.297" id="Path"></path>
                </g>
            </g>
        </g>
    </symbol>

    <symbol id="github" viewBox="0 0 24 24" version="1.1">


    <symbol id="instagram" viewBox="0 0 24 24" version="1.1">
        <g id="Page-1" stroke="none" stroke-width="1" fill="none" fill-rule="evenodd">
            <g id="Desktop" transform="translate(-458.000000, -373.000000)" fill="#000000" fill-rule="nonzero">
                <g id="instagram" transform="translate(458.000000, 373.000000)">
                    <path d="M12,0 C8.74,0 8.333,0.015 7.053,0.072 C5.775,0.132 4.905,0.333 4.14,0.63 C3.351,0.936 2.681,1.347 2.014,2.014 C1.347,2.681 0.935,3.35 0.63,4.14 C0.333,4.905 0.131,5.775 0.072,7.053 C0.012,8.333 0,8.74 0,12 C0,15.26 0.015,15.667 0.072,16.947 C0.132,18.224 0.333,19.095 0.63,19.86 C0.936,20.648 1.347,21.319 2.014,21.986 C2.681,22.652 3.35,23.065 4.14,23.37 C4.906,23.666 5.776,23.869 7.053,23.928 C8.333,23.988 8.74,24 12,24 C15.26,24 15.667,23.985 16.947,23.928 C18.224,23.868 19.095,23.666 19.86,23.37 C20.648,23.064 21.319,22.652 21.986,21.986 C22.652,21.319 23.065,20.651 23.37,19.86 C23.666,19.095 23.869,18.224 23.928,16.947 C23.988,15.667 24,15.26 24,12 C24,8.74 23.985,8.333 23.928,7.053 C23.868,5.776 23.666,4.904 23.37,4.14 C23.064,3.351 22.652,2.681 21.986,2.014 C21.319,1.347 20.651,0.935 19.86,0.63 C19.095,0.333 18.224,0.131 16.947,0.072 C15.667,0.012 15.26,0 12,0 Z M12,2.16 C15.203,2.16 15.585,2.176 16.85,2.231 C18.02,2.286 18.655,2.48 19.077,2.646 C19.639,2.863 20.037,3.123 20.459,3.542 C20.878,3.962 21.138,4.361 21.355,4.923 C21.519,5.345 21.715,5.98 21.768,7.15 C21.825,8.416 21.838,8.796 21.838,12 C21.838,15.204 21.823,15.585 21.764,16.85 C21.703,18.02 21.508,18.655 21.343,19.077 C21.119,19.639 20.864,20.037 20.444,20.459 C20.025,20.878 19.62,21.138 19.064,21.355 C18.644,21.519 17.999,21.715 16.829,21.768 C15.555,21.825 15.18,21.838 11.97,21.838 C8.759,21.838 8.384,21.823 7.111,21.764 C5.94,21.703 5.295,21.508 4.875,21.343 C4.306,21.119 3.915,20.864 3.496,20.444 C3.075,20.025 2.806,19.62 2.596,19.064 C2.431,18.644 2.237,17.999 2.176,16.829 C2.131,15.569 2.115,15.18 2.115,11.985 C2.115,8.789 2.131,8.399 2.176,7.124 C2.237,5.954 2.431,5.31 2.596,4.89 C2.806,4.32 3.075,3.93 3.496,3.509 C3.915,3.09 4.306,2.82 4.875,2.611 C5.295,2.445 5.926,2.25 7.096,2.19 C8.371,2.145 8.746,2.13 11.955,2.13 L12,2.16 L12,2.16 Z M12,5.838 C8.595,5.838 5.838,8.598 5.838,12 C5.838,15.405 8.598,18.162 12,18.162 C15.405,18.162 18.162,15.402 18.162,12 C18.162,8.595 15.402,5.838 12,5.838 Z M12,16 C9.79,16 8,14.21 8,12 C8,9.79 9.79,8 12,8 C14.21,8 16,9.79 16,12 C16,14.21 14.21,16 12,16 Z M19.846,5.595 C19.846,6.39 19.2,7.035 18.406,7.035 C17.611,7.035 16.966,6.389 16.966,5.595 C16.966,4.801 17.612,4.15599884 18.406,4.15599884 C19.199,4.155 19.846,4.801 19.846,5.595 Z" id="Shape"></path>
                </g>
            </g>
        </g>
    </symbol>


    <symbol id="twitter" viewBox="0 0 24 24" version="1.1">
    <g id="Page-1" stroke="none" stroke-width="1" fill="none" fill-rule="evenodd">
        <g id="Desktop" transform="translate(-523.000000, -373.000000)" fill="#000000" fill-rule="nonzero">
            <g id="twitter" transform="translate(523.000000, 373.000000)">
                <path d="M23.954,2.569 C23.069,2.958 22.124,3.223 21.129,3.344 C22.143,2.733 22.923,1.77 23.292,0.621 C22.341,1.176 21.287,1.58 20.165,1.805 C19.269,0.846 17.992,0.246 16.574,0.246 C13.857,0.246 11.654,2.449 11.654,5.163 C11.654,5.553 11.699,5.928 11.781,6.287 C7.691,6.094 4.066,4.13 1.64,1.161 C1.213,1.883 0.974,2.722 0.974,3.636 C0.974,5.346 1.844,6.849 3.162,7.732 C2.355,7.706 1.596,7.484 0.934,7.116 L0.934,7.177 C0.934,9.562 2.627,11.551 4.88,12.004 C4.467,12.115 4.031,12.175 3.584,12.175 C3.27,12.175 2.969,12.145 2.668,12.089 C3.299,14.042 5.113,15.466 7.272,15.506 C5.592,16.825 3.463,17.611 1.17,17.611 C0.78,17.611 0.391,17.588 0,17.544 C2.189,18.938 4.768,19.753 7.557,19.753 C16.611,19.753 21.556,12.257 21.556,5.767 C21.556,5.558 21.556,5.347 21.541,5.137 C22.502,4.448 23.341,3.577 24.001,2.589 L23.954,2.569 Z" id="Path"></path>
            </g>
        </g>
    </g>
    </symbol>




<symbol id="mysite" viewBox="0 0 24 24" version="1.1">
    <g id="Page-1" stroke="none" stroke-width="1" fill="none" fill-rule="evenodd">
        <g id="Desktop" transform="translate(-458.000000, -373.000000)" fill="#000000" fill-rule="nonzero">
            <g id="mysite" transform="translate(458.000000, 373.000000)">
                <path d="M12,0 C8.74,0 8.333,0.015 7.053,0.072 C5.775,0.132 4.905,0.333 4.14,0.63 C3.351,0.936 2.681,1.347 2.014,2.014 C1.347,2.681 0.935,3.35 0.63,4.14 C0.333,4.905 0.131,5.775 0.072,7.053 C0.012,8.333 0,8.74 0,12 C0,15.26 0.015,15.667 0.072,16.947 C0.132,18.224 0.333,19.095 0.63,19.86 C0.936,20.648 1.347,21.319 2.014,21.986 C2.681,22.652 3.35,23.065 4.14,23.37 C4.906,23.666 5.776,23.869 7.053,23.928 C8.333,23.988 8.74,24 12,24 C15.26,24 15.667,23.985 16.947,23.928 C18.224,23.868 19.095,23.666 19.86,23.37 C20.648,23.064 21.319,22.652 21.986,21.986 C22.652,21.319 23.065,20.651 23.37,19.86 C23.666,19.095 23.869,18.224 23.928,16.947 C23.988,15.667 24,15.26 24,12 C24,8.74 23.985,8.333 23.928,7.053 C23.868,5.776 23.666,4.904 23.37,4.14 C23.064,3.351 22.652,2.681 21.986,2.014 C21.319,1.347 20.651,0.935 19.86,0.63 C19.095,0.333 18.224,0.131 16.947,0.072 C15.667,0.012 15.26,0 12,0 Z M12,2.16 C15.203,2.16 15.585,2.176 16.85,2.231 C18.02,2.286 18.655,2.48 19.077,2.646 C19.639,2.863 20.037,3.123 20.459,3.542 C20.878,3.962 21.138,4.361 21.355,4.923 C21.519,5.345 21.715,5.98 21.768,7.15 C21.825,8.416 21.838,8.796 21.838,12 C21.838,15.204 21.823,15.585 21.764,16.85 C21.703,18.02 21.508,18.655 21.343,19.077 C21.119,19.639 20.864,20.037 20.444,20.459 C20.025,20.878 19.62,21.138 19.064,21.355 C18.644,21.519 17.999,21.715 16.829,21.768 C15.555,21.825 15.18,21.838 11.97,21.838 C8.759,21.838 8.384,21.823 7.111,21.764 C5.94,21.703 5.295,21.508 4.875,21.343 C4.306,21.119 3.915,20.864 3.496,20.444 C3.075,20.025 2.806,19.62 2.596,19.064 C2.431,18.644 2.237,17.999 2.176,16.829 C2.131,15.569 2.115,15.18 2.115,11.985 C2.115,8.789 2.131,8.399 2.176,7.124 C2.237,5.954 2.431,5.31 2.596,4.89 C2.806,4.32 3.075,3.93 3.496,3.509 C3.915,3.09 4.306,2.82 4.875,2.611 C5.295,2.445 5.926,2.25 7.096,2.19 C8.371,2.145 8.746,2.13 11.955,2.13 L12,2.16 L12,2.16 Z" id="Shape"></path>
            </g>
        </g>
    </g>
 </symbol>

    </defs>
</svg>
